HIERARCHY
ROOT Hips
{
    OFFSET 0.000000 0.000000 0.000000
    CHANNELS 6 Xposition Yposition Zposition Zrotation Xrotation Yrotation
    JOINT Spine
    {
        OFFSET -0.000000 7.595339 0.000000
        CHANNELS 3 Zrotation Xrotation Yrotation
        JOINT Spine1
        {
            OFFSET -0.000000 23.501528 0.000000
            CHANNELS 3 Zrotation Xrotation Yrotation
            JOINT Neck
            {
                OFFSET -0.000000 23.405012 2.127728
                CHANNELS 3 Zrotation Xrotation Yrotation
                JOINT Head
                {
                    OFFSET -0.000000 12.967652 -1.852522
                    CHANNELS 3 Zrotation Xrotation Yrotation
                    End Site
                    {
                        OFFSET -0.000000 23.156521 0.000000
                    }
                }
            }
            JOINT LeftShoulder
            {
                OFFSET 3.622064 22.473162 -0.132728
                CHANNELS 3 Zrotation Xrotation Yrotation
                JOINT LeftArm
                {
                    OFFSET 8.177839 0.000000 0.000000
                    CHANNELS 3 Zrotation Xrotation Yrotation
                    JOINT LeftForeArm
                    {
                        OFFSET 30.104038 0.000000 0.000000
                        CHANNELS 3 Zrotation Xrotation Yrotation
                        JOINT LeftHand
                        {
                            OFFSET 24.466351 0.000000 0.000000
                            CHANNELS 3 Zrotation Xrotation Yrotation
                            End Site
                            {
                                OFFSET 13.893912 0.000000 0.000000
                            }
                        }
                    }
                }
            }
            JOINT RightShoulder
            {
                OFFSET -3.633604 22.473162 -0.132728
                CHANNELS 3 Zrotation Xrotation Yrotation
                JOINT RightArm
                {
                    OFFSET -8.177839 0.000000 0.000000
                    CHANNELS 3 Zrotation Xrotation Yrotation
                    JOINT RightForeArm
                    {
                        OFFSET -30.104038 0.000000 0.000000
                        CHANNELS 3 Zrotation Xrotation Yrotation
                        JOINT RightHand
                        {
                            OFFSET -24.466351 0.000000 0.000000
                            CHANNELS 3 Zrotation Xrotation Yrotation
                            End Site
                            {
                                OFFSET -13.893912 0.000000 0.000000
                            }
                        }
                    }
                }
            }
        }
    }
    JOINT LeftUpLeg
    {
        OFFSET 9.262609 0.000000 0.000000
        CHANNELS 3 Zrotation Xrotation Yrotation
        JOINT LeftLeg
        {
            OFFSET -0.000000 -35.489674 0.000000
            CHANNELS 3 Zrotation Xrotation Yrotation
            JOINT LeftFoot
            {
                OFFSET -0.000000 -38.202274 0.000000
                CHANNELS 3 Zrotation Xrotation Yrotation
                JOINT LeftToeBase
                {
                    OFFSET -0.000000 -6.020695 13.893912
                    CHANNELS 3 Zrotation Xrotation Yrotation
                    End Site
                    {
                        OFFSET -0.000000 0.000000 3.705043
                    }
                }
            }
        }
    }
    JOINT RightUpLeg
    {
        OFFSET -9.262609 0.000000 0.000000
        CHANNELS 3 Zrotation Xrotation Yrotation
        JOINT RightLeg
        {
            OFFSET -0.000000 -35.489674 0.000000
            CHANNELS 3 Zrotation Xrotation Yrotation
            JOINT RightFoot
            {
                OFFSET -0.000000 -38.202274 0.000000
                CHANNELS 3 Zrotation Xrotation Yrotation
                JOINT RightToeBase
                {
                    OFFSET -0.000000 -6.020695 13.893912
                    CHANNELS 3 Zrotation Xrotation Yrotation
                    End Site
                    {
                        OFFSET -0.000000 0.000000 3.705043
                    }
                }
            }
        }
    }
}
MOTION
Frames:    13
Frame Time:    0.004000
-9.755715    75.677582    -198.756805    -0.947505    -0.922588    -6.559385    -0.470795    -5.516288    0.748601    3.014741    -1.793747    0.818484    -4.405179    27.261423    -3.524579    2.004605    -2.884938    -3.806216    9.223038    2.720397    12.395018    -18.153023    2.426298    -3.405812    1.114301    -1.261043    0.583273    1.781679    -1.313069    -2.981844    -8.942540    4.345568    19.411467    17.177431    -1.665361    -4.725653    -1.812882    -0.864192    0.405711    -0.696256    -0.870473    2.082016    2.279206    11.861812    -0.945651    -0.635724    -7.046008    -6.898947    0.240454    -6.107748    22.126427    0.000000    0.000000    0.000000    -2.705821    0.961896    1.315821    -1.577942    6.076840    3.248165    1.701820    -6.534747    3.252049    0.000000    0.000000    0.000000    
-9.755317    75.676682    -198.763199    -0.943560    -0.918266    -6.575160    -0.483163    -5.519477    0.747803    3.027452    -1.795748    0.818600    -4.407421    27.251329    -3.518728    1.999177    -2.850058    -3.801404    9.233767    2.685718    12.392263    -18.137459    2.473495    -3.385704    1.114691    -1.245085    0.585035    1.747382    -1.296087    -2.970496    -8.951906    4.331646    19.401951    17.172342    -1.633224    -4.723337    -1.818501    -0.817797    0.406687    -0.700486    -0.823610    2.011515    2.276688    11.856444    -0.940171    -0.640148    -7.049578    -6.860674    0.240590    -6.103209    22.105923    0.000000    0.000000    0.000000    -2.705639    0.940251    1.291693    -1.591783    6.097776    3.309495    1.652151    -6.560852    3.245265    0.000000    0.000000    0.000000    
-9.755113    75.677399    -198.759491    -0.949794    -0.930455    -6.577920    -0.478680    -5.515500    0.743518    3.030291    -1.789459    0.813971    -4.409274    27.248430    -3.512090    1.991665    -2.823978    -3.796279    9.243867    2.692015    12.390128    -18.141380    2.457145    -3.378005    1.103040    -1.222775    0.587560    1.770406    -1.274256    -2.964839    -8.955864    4.324195    19.415455    17.170053    -1.622801    -4.739393    -1.777001    -0.793612    0.439850    -1.343666    -0.806487    1.669641    2.279846    11.879831    -0.935215    -0.643421    -7.064826    -6.844563    0.244828    -6.094806    22.092936    0.000000    0.000000    0.000000    -2.698294    0.958741    1.299070    -1.593232    6.080081    3.197766    1.660456    -6.527613    3.351422    0.000000    0.000000    0.000000    
-9.755707    75.676140    -198.765518    -0.950817    -0.917513    -6.581336    -0.480435    -5.524796    0.742180    3.029587    -1.790868    0.812744    -4.406423    27.253170    -3.511366    2.000531    -2.834162    -3.793755    9.266513    2.689267    12.387454    -18.145075    2.427772    -3.372763    1.089459    -1.194691    0.586128    1.768573    -1.246133    -2.968462    -8.958945    4.319339    19.395336    17.160357    -1.613967    -4.721092    -1.656736    -0.919844    0.497454    -2.002956    -0.937173    1.397740    2.286583    11.857434    -0.947354    -0.647715    -7.056132    -6.836523    0.238216    -6.114722    22.102146    0.000000    0.000000    0.000000    -2.699569    0.933874    1.291668    -1.585436    6.100560    3.261072    1.656623    -6.547698    3.295091    0.000000    0.000000    0.000000    
-9.755820    75.676315    -198.767014    -0.949845    -0.915305    -6.597722    -0.481618    -5.527796    0.745109    3.028769    -1.790174    0.815745    -4.379709    27.267170    -3.512034    1.961100    -2.859713    -3.798360    9.266344    2.733799    12.384153    -18.149281    2.421539    -3.377430    1.101732    -1.216673    0.591537    1.783997    -1.268700    -2.975923    -8.957355    4.305871    19.399044    17.159781    -1.583658    -4.732533    -1.708845    -0.893600    0.473028    -1.343209    -0.906326    1.689693    2.281562    11.853648    -0.916950    -0.650449    -7.048869    -6.835559    0.246267    -6.109572    22.083242    0.000000    0.000000    0.000000    -2.699510    0.924924    1.278833    -1.588701    6.108041    3.337093    1.628154    -6.561581    3.249436    0.000000    0.000000    0.000000    
-9.756330    75.677345    -198.765381    -0.954692    -0.923642    -6.596534    -0.479397    -5.523545    0.740894    3.029425    -1.785496    0.811308    -4.382469    27.267134    -3.510765    1.962983    -2.855325    -3.797103    9.266727    2.694589    12.388666    -18.128735    2.451723    -3.367660    1.093801    -1.197159    0.594130    1.793163    -1.249329    -2.970585    -8.955535    4.302281    19.386183    17.156704    -1.567604    -4.724958    -1.719454    -0.878246    0.474557    -1.359275    -0.890900    1.669615    2.281655    11.867354    -0.905693    -0.639338    -7.053974    -6.855142    0.230860    -6.100684    22.083441    0.000000    0.000000    0.000000    -2.693559    0.938442    1.308965    -1.589401    6.098072    3.254620    1.658055    -6.535515    3.292543    0.000000    0.000000    0.000000    
-9.756531    75.676743    -198.768814    -0.959764    -0.921046    -6.597722    -0.476930    -5.524435    0.738702    3.029023    -1.783183    0.808951    -4.366624    27.264282    -3.511909    1.948740    -2.859099    -3.798795    9.281269    2.735470    12.381388    -18.147715    2.425858    -3.368029    1.101028    -1.200790    0.592914    1.796727    -1.253184    -2.978643    -8.960436    4.282291    19.375540    17.164713    -1.543243    -4.723835    -1.723187    -0.874394    0.475699    -1.390880    -0.887110    1.637911    2.293633    11.857281    -0.908511    -0.645610    -7.042410    -6.893421    0.251925    -6.127783    22.115391    0.000000    0.000000    0.000000    -2.685889    0.924086    1.283963    -1.596625    6.121798    3.325698    1.655213    -6.546422    3.242880    0.000000    0.000000    0.000000    
-9.755604    75.676498    -198.768829    -0.958628    -0.920691    -6.605677    -0.478998    -5.528483    0.737300    3.027887    -1.776115    0.807406    -4.344273    27.254597    -3.510232    1.912955    -2.852646    -3.800314    9.287309    2.709642    12.384915    -18.137209    2.443940    -3.356456    1.090421    -1.177999    0.597215    1.833678    -1.231223    -2.967739    -8.959886    4.296196    19.367760    17.155561    -1.545766    -4.715221    -1.738434    -0.875065    0.478691    -1.396936    -0.887552    1.621739    2.290673    11.858344    -0.906172    -0.653157    -7.043661    -6.850654    0.241318    -6.123280    22.093580    0.000000    0.000000    0.000000    -2.690843    0.923820    1.294837    -1.588679    6.118573    3.344021    1.629889    -6.543687    3.222868    0.000000    0.000000    0.000000    
-9.754367    75.676727    -198.770142    -0.958314    -0.923973    -6.614014    -0.481763    -5.522660    0.738862    3.036251    -1.781182    0.809277    -4.357922    27.269255    -3.513083    1.925738    -2.862684    -3.803083    9.288117    2.706684    12.380605    -18.137653    2.436511    -3.352447    1.083484    -1.174789    0.603744    1.890996    -1.229358    -2.958519    -8.970730    4.302036    19.359503    17.154045    -1.532785    -4.711788    -1.751770    -0.893586    0.475039    -1.374688    -0.906115    1.644900    2.283374    11.868255    -0.910900    -0.640718    -7.057265    -6.853665    0.254980    -6.101256    22.106661    0.000000    0.000000    0.000000    -2.692397    0.926286    1.289427    -1.590004    6.101099    3.232101    1.695335    -6.511705    3.354535    0.000000    0.000000    0.000000    
-9.755388    75.675980    -198.772400    -0.959723    -0.918703    -6.615949    -0.484380    -5.528010    0.734723    3.036630    -1.779934    0.805278    -4.345653    27.271105    -3.510340    1.910518    -2.870491    -3.801402    9.289842    2.706775    12.385883    -18.132650    2.461343    -3.353257    1.209034    -1.006842    0.667662    1.345246    -1.050210    -3.095449    -8.963996    4.287097    19.358803    17.150808    -1.512525    -4.719352    -1.757826    -0.912462    0.482585    -1.401105    -0.925120    1.639553    2.291655    11.855248    -0.908525    -0.646074    -7.048307    -6.883606    0.264845    -6.109419    22.116888    0.000000    0.000000    0.000000    -2.689869    0.915652    1.290986    -1.593207    6.112125    3.264764    1.685793    -6.530948    3.332653    0.000000    0.000000    0.000000    
-9.756398    75.676048    -198.773239    -0.964296    -0.921885    -6.618767    -0.487719    -5.526124    0.733601    3.046659    -1.774931    0.804360    -4.356880    27.250650    -3.510229    1.929520    -2.836535    -3.798999    9.291707    2.706453    12.378250    -18.133442    2.446344    -3.346077    1.085313    -1.173170    0.615706    1.952781    -1.229593    -2.965517    -8.968161    4.273937    19.353920    17.148083    -1.514300    -4.734286    -1.767966    -0.928796    0.500128    -1.378757    -0.940971    1.645321    2.300201    11.852552    -0.906619    -0.658712    -7.031143    -6.846090    0.273663    -6.131691    22.083557    0.000000    0.000000    0.000000    -2.686576    0.919669    1.296749    -1.585208    6.117942    3.315785    1.649792    -6.537821    3.254578    0.000000    0.000000    0.000000    
-9.753926    75.675156    -198.774857    -0.963070    -0.927959    -6.626117    -0.488412    -5.519334    0.733272    3.047047    -1.771846    0.803911    -4.326713    27.258751    -3.517042    1.878619    -2.864225    -3.811257    9.293536    2.701584    12.381503    -18.132792    2.438194    -3.345024    1.080843    -1.173834    0.622733    1.996819    -1.231234    -2.955463    -8.965701    4.270309    19.349691    17.136435    -1.509881    -4.739377    -1.939590    -0.923155    0.459578    -0.648956    -0.925939    1.850174    2.293886    11.862792    -0.903539    -0.660593    -7.035469    -6.840201    0.279673    -6.134233    22.100443    0.000000    0.000000    0.000000    -2.688508    0.917411    1.289355    -1.594124    6.120405    3.273172    1.653659    -6.540656    3.325107    0.000000    0.000000    0.000000    
-9.754639    75.674484    -198.776016    -0.969912    -0.930130    -6.633696    -0.489368    -5.515913    0.735372    3.056017    -1.770042    0.806177    -4.318033    27.266022    -3.519186    1.869670    -2.884610    -3.814045    9.286952    2.709199    12.370790    -18.128586    2.426783    -3.340107    1.079409    -1.186685    0.629932    2.045262    -1.245479    -2.961458    -8.966379    4.272497    19.340258    17.130678    -1.518939    -4.744217    -1.963436    -0.941810    0.468094    -0.607373    -0.943730    1.872701    2.298728    11.864023    -0.896141    -0.653791    -7.033356    -6.824798    0.283269    -6.131516    22.066616    0.000000    0.000000    0.000000    -2.683149    0.914925    1.291046    -1.590217    6.125116    3.277552    1.652764    -6.534363    3.339293    0.000000    0.000000    0.000000    
